<svg width="127" height="46" viewBox="0 0 127 46" fill="none" xmlns="http://www.w3.org/2000/svg">
<g opacity="0.93">
<path fill-rule="evenodd" clip-rule="evenodd" d="M54.2751 24.4255C55.5485 23.2675 56.1824 21.7738 56.1824 19.9388C56.1824 18.1206 55.5485 16.6324 54.2751 15.4688C53.0017 14.3107 51.3661 13.7289 49.3683 13.7289H44.9595V26.1375H49.3683C51.3774 26.143 53.013 25.5724 54.2751 24.4255ZM49.1929 15.5247C50.7606 15.5247 51.983 15.9219 52.8489 16.7108C53.7318 17.5164 54.1676 18.5905 54.1676 19.9388C54.1676 21.287 53.7261 22.3612 52.8489 23.1668C51.983 23.9612 50.7606 24.3528 49.1929 24.3528H46.9291V15.5247H49.1929ZM68.639 25.3822V23.4129C67.6882 24.1682 66.4997 24.5486 65.0679 24.5486C63.7209 24.5486 62.6116 24.1178 61.7344 23.2563C60.8515 22.3836 60.4157 21.2758 60.4157 19.9388C60.4157 18.6017 60.8515 17.5052 61.7174 16.6436C62.6003 15.7709 63.6926 15.3345 64.9999 15.3345C66.1941 15.3233 67.3713 15.6646 68.373 16.3079V14.3387C67.3826 13.7848 66.2564 13.5051 64.983 13.5051C63.0814 13.5051 61.508 14.1149 60.2742 15.3289C59.0235 16.5317 58.4009 18.0702 58.4009 19.9388C58.4009 21.8073 59.0235 23.3458 60.2742 24.5654C61.5476 25.7682 63.1153 26.3724 64.983 26.3724C66.3752 26.3724 67.592 26.0423 68.639 25.3822ZM73.0082 16.7108L76.4888 21.3933H77.632L81.1126 16.7108V26.143H83.0765V13.7345H81.1126L77.1 19.3178L73.0478 13.7345H71.05V26.143H73.0138V16.7108H73.0082ZM86.7665 25.0969C87.7173 25.9472 88.8662 26.3724 90.2075 26.3724C91.5488 26.3724 92.6298 26.0871 93.4391 25.5221V23.9108C92.5902 24.4199 91.6167 24.6941 90.6206 24.6885C89.7151 24.6885 88.9681 24.4815 88.3795 24.0675C87.7909 23.6535 87.4343 23.0829 87.3155 22.35H94.022V21.8521C94.022 20.101 93.4051 18.7919 92.1657 17.9192C91.5375 17.4492 90.7678 17.2087 89.8623 17.2087C88.5436 17.2087 87.457 17.645 86.6137 18.5178C85.7817 19.3793 85.3629 20.4702 85.3629 21.7794C85.3743 23.1444 85.8383 24.2465 86.7665 25.0969ZM88.0965 19.4185C88.5436 19.0213 89.1039 18.8255 89.783 18.8255C90.4961 18.8255 91.0564 19.0381 91.4583 19.4632C91.8374 19.8493 92.0638 20.3584 92.0808 20.901H87.3325C87.3891 20.3248 87.6607 19.7933 88.0965 19.4185ZM102.947 24.957V26.143H104.871V13.7345H102.947V18.6297C102.211 17.6842 101.17 17.2143 99.8231 17.2087C98.5836 17.2087 97.5706 17.6506 96.7726 18.5401C95.9746 19.4129 95.5784 20.4982 95.5784 21.7849C95.5784 23.0829 95.9746 24.1738 96.7726 25.0465C97.5706 25.9305 98.5893 26.378 99.8231 26.378C101.17 26.3724 102.211 25.9025 102.947 24.957ZM98.3289 23.8549C97.7913 23.2899 97.5253 22.5961 97.5253 21.7794C97.5253 20.9737 97.7913 20.2968 98.3289 19.743C98.8666 19.1779 99.5344 18.8926 100.344 18.8926C100.881 18.8926 101.413 19.0437 101.866 19.329C102.319 19.5975 102.687 19.9835 102.947 20.4367V23.1332C102.698 23.5976 102.325 23.9836 101.877 24.2577C101.419 24.543 100.887 24.6941 100.344 24.6941C99.5344 24.6885 98.8609 24.4144 98.3289 23.8549ZM109.71 17.438H107.78V26.143H109.71V17.438ZM109.597 15.5359C109.829 15.3065 109.954 14.9988 109.948 14.6744C109.954 14.3499 109.829 14.0366 109.597 13.8072C109.376 13.5778 109.071 13.4492 108.748 13.4548C108.42 13.4492 108.109 13.5778 107.882 13.8072C107.65 14.0366 107.526 14.3499 107.537 14.6744C107.526 14.9932 107.656 15.3065 107.882 15.5359C108.109 15.7653 108.426 15.8884 108.748 15.8828C109.065 15.8884 109.371 15.7597 109.597 15.5359ZM120.316 24.4255C120.18 24.2745 120.112 24.0619 120.112 23.7878V20.543C120.112 19.4912 119.745 18.6744 119.015 18.087C118.284 17.4996 117.3 17.2087 116.06 17.2087C114.798 17.2087 113.734 17.4548 112.868 17.9527V19.6367C113.695 19.122 114.657 18.8534 115.636 18.859C117.351 18.859 118.205 19.4912 118.205 20.7556V21.2367C117.396 20.7891 116.462 20.5653 115.404 20.5653C114.402 20.5653 113.57 20.8171 112.908 21.3262C112.229 21.8241 111.889 22.529 111.889 23.4521C111.889 24.3752 112.2 25.0913 112.817 25.5948C113.446 26.1151 114.232 26.3724 115.172 26.3724C116.53 26.3724 117.605 25.9249 118.403 25.0241C118.63 25.8521 119.241 26.2661 120.243 26.2661C120.729 26.2661 121.103 26.171 121.369 25.9808V24.5262C121.21 24.6102 121.029 24.6549 120.854 24.6493C120.644 24.6605 120.446 24.5766 120.316 24.4255ZM117.096 24.4311C116.66 24.6213 116.185 24.722 115.704 24.722C115.121 24.722 114.662 24.6046 114.323 24.3696C113.983 24.1346 113.813 23.7878 113.813 23.3402C113.802 22.9374 114.011 22.557 114.357 22.35C114.719 22.115 115.223 21.9975 115.862 21.9975C116.683 21.9975 117.486 22.2101 118.2 22.6185V23.6815C117.894 24.006 117.515 24.2633 117.096 24.4311Z" fill="#333333"/>
<path fill-rule="evenodd" clip-rule="evenodd" d="M45.2524 29.6395H45.0996V33.5164H45.2524V29.6395ZM45.0317 28.0674C44.9355 28.1625 44.9355 28.252 45.0317 28.3471C45.1279 28.4423 45.2241 28.4423 45.3203 28.3471C45.4165 28.252 45.4165 28.1625 45.3203 28.0674C45.2241 27.9723 45.1279 27.9723 45.0317 28.0674ZM48.9481 29.9695C49.2594 29.7849 49.6159 29.6842 49.9838 29.6786C50.9403 29.6786 51.4213 30.1821 51.4213 31.1891V33.5164H51.5741V31.1612C51.5741 30.6409 51.4383 30.2381 51.1723 29.9584C50.9063 29.6786 50.5158 29.5388 50.0008 29.5388C49.6442 29.5388 49.2877 29.6227 48.9764 29.7849C48.6764 29.9304 48.4104 30.143 48.201 30.4059V29.6395H48.0482V33.5164H48.201V30.6465C48.3878 30.3668 48.6481 30.1374 48.9481 29.9695ZM56.396 33.4325V33.2759C56.181 33.4101 55.932 33.4829 55.6716 33.4829C55.1283 33.4829 54.8566 33.1976 54.8566 32.6269V29.7849H56.464V29.6451H54.8566V28.3248H54.7038V29.6451H53.6172V29.7849H54.7038V32.6661C54.7038 32.985 54.7887 33.2255 54.9642 33.3822C55.134 33.5444 55.3717 33.6227 55.6716 33.6227C55.9263 33.6283 56.181 33.5612 56.396 33.4325ZM61.8405 33.2759V33.1192C61.4896 33.3598 61.0595 33.4829 60.5388 33.4829C59.9615 33.4829 59.4805 33.3039 59.0956 32.9458C58.7165 32.5822 58.5297 32.129 58.5297 31.5863V31.5304H62.1631V31.4745C62.1631 31.3234 62.1461 31.1724 62.1178 31.0269C62.0782 30.8535 62.0216 30.68 61.9424 30.5178C61.8632 30.3444 61.7556 30.1821 61.6198 30.0367C61.4727 29.8856 61.2915 29.7681 61.0878 29.6898C60.8501 29.5947 60.5954 29.5444 60.3351 29.55C59.7578 29.55 59.2881 29.7402 58.9259 30.1262C58.558 30.5178 58.3712 31.0045 58.3712 31.5863C58.3712 32.1738 58.5806 32.6605 58.9938 33.0465C59.4069 33.4325 59.9219 33.6227 60.5388 33.6227C61.0821 33.6227 61.5179 33.5053 61.8405 33.2759ZM59.056 30.2101C59.3786 29.8577 59.8087 29.6842 60.3407 29.6842C60.6124 29.6786 60.8841 29.7346 61.1274 29.8521C61.3425 29.9528 61.5236 30.1094 61.6594 30.2996C61.8858 30.6185 62.0103 30.9933 62.016 31.3794H58.541C58.5636 30.9486 58.7448 30.529 59.056 30.2101ZM64.6816 30.7807C64.8344 30.4786 65.0608 30.2101 65.3438 30.0143C65.6211 29.8017 65.9607 29.6842 66.3116 29.6842V29.5444C65.9437 29.55 65.5928 29.6619 65.2928 29.8688C65.0438 30.0423 64.8344 30.2661 64.6816 30.529V29.6451H64.5288V33.522H64.6816V30.7807ZM69.2206 29.9695C69.5318 29.7849 69.8884 29.6842 70.2563 29.6786C71.2127 29.6786 71.6938 30.1821 71.6938 31.1891V33.5164H71.8466V31.1612C71.8466 30.6409 71.7108 30.2381 71.4448 29.9584C71.1788 29.6786 70.7882 29.5388 70.2732 29.5388C69.9167 29.5388 69.5601 29.6227 69.2432 29.7849C68.9432 29.9304 68.6772 30.143 68.4678 30.4059V29.6395H68.315V33.5164H68.4678V30.6465C68.6603 30.3668 68.9149 30.1374 69.2206 29.9695ZM77.608 33.2759V33.1192C77.2571 33.3598 76.827 33.4829 76.3063 33.4829C75.729 33.4829 75.248 33.3039 74.8631 32.9458C74.4839 32.5822 74.2972 32.129 74.2972 31.5863V31.5304H77.9306V31.4745C77.9306 31.3234 77.9136 31.1724 77.8853 31.0269C77.8457 30.8535 77.7891 30.68 77.7099 30.5178C77.6306 30.3444 77.5231 30.1821 77.3873 30.0367C77.2401 29.8856 77.059 29.7681 76.8553 29.6898C76.6176 29.5947 76.3629 29.5444 76.1026 29.55C75.5253 29.55 75.0555 29.7402 74.6933 30.1262C74.3255 30.5178 74.1387 31.0045 74.1387 31.5863C74.1387 32.1738 74.3481 32.6605 74.7612 33.0465C75.1744 33.4325 75.6894 33.6227 76.3063 33.6227C76.8553 33.6227 77.2854 33.5053 77.608 33.2759ZM74.8235 30.2101C75.1461 29.8577 75.5762 29.6842 76.1082 29.6842C76.3799 29.6786 76.6515 29.7346 76.8949 29.8521C77.11 29.9528 77.2911 30.1094 77.4269 30.2996C77.6533 30.6185 77.7778 30.9933 77.7834 31.3794H74.3085C74.3311 30.9486 74.5179 30.529 74.8235 30.2101ZM82.4356 33.4325V33.2759C82.2205 33.4101 81.9715 33.4829 81.7112 33.4829C81.1678 33.4829 80.8962 33.1976 80.8962 32.6269V29.7849H82.5035V29.6451H80.8962V28.3248H80.7434V29.6451H79.6567V29.7849H80.7434V32.6661C80.7434 32.985 80.8283 33.2255 81.0037 33.3822C81.1792 33.5388 81.4112 33.6227 81.7112 33.6227C81.9658 33.6283 82.2149 33.5612 82.4356 33.4325ZM91.2362 32.8059C91.2362 33.0409 91.2928 33.2255 91.4116 33.3542C91.5248 33.4829 91.6889 33.55 91.8644 33.55C91.9436 33.55 92.0285 33.5388 92.1021 33.5108V33.371C92.0285 33.399 91.9493 33.4157 91.87 33.4102C91.7285 33.4157 91.5927 33.3542 91.5135 33.2423C91.4229 33.108 91.3776 32.9458 91.3833 32.7836V30.9318C91.3833 30.473 91.2305 30.1318 90.9249 29.8968C90.6193 29.6619 90.2118 29.5444 89.6911 29.5444C89.1308 29.5444 88.6611 29.6786 88.2875 29.9416V30.1038C88.695 29.8241 89.1817 29.673 89.6798 29.6842C90.1778 29.6842 90.5627 29.7905 90.8287 30.0031C91.0947 30.2157 91.2305 30.5234 91.2305 30.9262V31.6031C90.7211 31.2954 90.1325 31.1276 89.5326 31.122C89.0346 31.122 88.6271 31.2395 88.3158 31.4745C88.0159 31.6815 87.8404 32.0171 87.8518 32.3752C87.8518 32.7668 88.0046 33.0745 88.3102 33.2983C88.6328 33.5164 89.0176 33.6283 89.4081 33.6227C90.1156 33.6339 90.7891 33.3318 91.2362 32.8059ZM88.4347 33.2087C88.1517 33.0185 88.0102 32.7388 88.0102 32.3752C88.0102 32.0451 88.1517 31.7766 88.4403 31.5696C88.729 31.3626 89.1082 31.2619 89.5836 31.2619C90.1382 31.2619 90.6928 31.4297 91.2418 31.771V32.5822C91.0437 32.8395 90.7891 33.0577 90.5004 33.2199C90.1835 33.3934 89.8269 33.4885 89.4647 33.4829C89.1025 33.4885 88.746 33.3934 88.4347 33.2087ZM97.3428 34.736C97.7107 34.4283 97.8974 33.992 97.8974 33.4213V29.6395H97.7446V30.4171C97.3315 29.8353 96.7486 29.5444 96.0015 29.5444C95.3846 29.5444 94.8809 29.7458 94.4904 30.1542C93.7207 30.9598 93.7207 32.2129 94.4904 33.0185C94.8809 33.4213 95.3846 33.6227 96.0015 33.6227C96.7486 33.6227 97.3315 33.3318 97.7446 32.75V33.4213C97.7446 33.9416 97.5748 34.35 97.2296 34.6353C96.89 34.9207 96.4203 35.0661 95.8317 35.0661C95.2941 35.0773 94.7677 34.9374 94.3093 34.6689V34.8311C94.779 35.0829 95.311 35.2116 95.8487 35.2004C96.4769 35.1948 96.9749 35.0437 97.3428 34.736ZM94.6206 32.9346C94.2584 32.571 94.0603 32.0843 94.0659 31.5808C94.0546 31.0773 94.2527 30.5905 94.6206 30.2325C94.9828 29.8688 95.4865 29.6674 96.0072 29.6786C96.375 29.6786 96.7372 29.7737 97.0485 29.9639C97.3541 30.1374 97.5975 30.3947 97.7503 30.7024V32.4535C97.5975 32.7612 97.3541 33.0185 97.0485 33.192C96.7372 33.3822 96.375 33.4773 96.0072 33.4773C95.4865 33.4941 94.9828 33.2927 94.6206 32.9346ZM103.749 33.2759V33.1192C103.398 33.3598 102.963 33.4829 102.448 33.4829C101.87 33.4829 101.389 33.3039 101.005 32.9458C100.625 32.5822 100.433 32.129 100.433 31.5863V31.5304H104.066V31.4745C104.066 31.3234 104.049 31.1724 104.021 31.0269C103.981 30.8535 103.925 30.68 103.846 30.5178C103.766 30.3444 103.653 30.1821 103.523 30.0367C103.37 29.8856 103.189 29.7681 102.991 29.6898C102.753 29.5947 102.499 29.5444 102.238 29.55C101.661 29.55 101.191 29.7402 100.829 30.1262C100.461 30.5178 100.274 31.0045 100.274 31.5863C100.274 32.1738 100.484 32.6605 100.897 33.0465C101.31 33.4325 101.825 33.6227 102.442 33.6227C102.991 33.6227 103.427 33.5053 103.749 33.2759ZM100.965 30.2101C101.287 29.8577 101.718 29.6842 102.25 29.6842C102.521 29.6786 102.793 29.7346 103.036 29.8521C103.251 29.9528 103.432 30.1094 103.568 30.2996C103.795 30.6185 103.919 30.9933 103.925 31.3794H100.45C100.473 30.9486 100.654 30.529 100.965 30.2101ZM107.338 29.9695C107.649 29.7849 108.005 29.6842 108.373 29.6786C109.33 29.6786 109.811 30.1821 109.811 31.1891V33.5164H109.964V31.1612C109.964 30.6409 109.828 30.2381 109.562 29.9584C109.296 29.6786 108.905 29.5388 108.39 29.5388C108.034 29.5388 107.677 29.6227 107.36 29.7849C107.06 29.9304 106.794 30.143 106.585 30.4059V29.6395H106.432V33.5164H106.585V30.6465C106.783 30.3668 107.038 30.1374 107.338 29.9695ZM112.844 33.0185C113.223 33.4213 113.727 33.6227 114.35 33.6227C114.848 33.6227 115.278 33.4997 115.646 33.2591V33.0913C115.267 33.3542 114.814 33.4885 114.35 33.4773C113.835 33.4885 113.337 33.2927 112.974 32.9346C112.612 32.571 112.414 32.0843 112.42 31.5808C112.408 31.0773 112.607 30.5905 112.974 30.2325C113.331 29.8688 113.835 29.6674 114.35 29.6786C114.78 29.673 115.199 29.7905 115.567 30.0143V29.8465C115.199 29.6339 114.78 29.522 114.35 29.5332C113.733 29.5332 113.229 29.7346 112.844 30.143C112.075 30.9598 112.075 32.2073 112.844 33.0185ZM118.674 34.9095C118.866 34.7193 119.07 34.406 119.279 33.9752L121.362 29.6395H121.192L119.483 33.1808L117.74 29.6395H117.57L119.398 33.3598C119.138 33.9584 118.906 34.3948 118.702 34.6633C118.504 34.9207 118.266 35.0493 117.983 35.0493C117.802 35.0493 117.627 35.0046 117.474 34.9151V35.0661C117.632 35.15 117.813 35.1948 117.994 35.1892C118.249 35.2004 118.498 35.0941 118.674 34.9095Z" fill="#333333"/>
<path fill-rule="evenodd" clip-rule="evenodd" d="M6.59845 8.39209L23.3394 12.532L39.5936 8.39209V32.4707C39.5936 33.3491 41.7102 33.8581 41.7102 33.8581H37.8617V10.8089L23.3167 14.4453L8.60193 10.8089V33.8581H6.59845V8.39209Z" fill="#333333"/>
<path fill-rule="evenodd" clip-rule="evenodd" d="M34.8864 16.1011L24.3654 21.9809L34.943 27.7879L26.9065 21.9865L34.8864 16.1011Z" fill="#333333"/>
<path fill-rule="evenodd" clip-rule="evenodd" d="M11.902 16.1342C11.902 16.1342 18.4954 15.7594 22.4175 21.986C19.1236 27.5414 12.5699 27.8155 12.5642 27.8155L11.9247 27.8323L11.902 16.1342Z" fill="#333333"/>
<path fill-rule="evenodd" clip-rule="evenodd" d="M12.3372 16.6772C12.3372 16.6772 18.3532 16.3415 21.9018 21.9639C18.9249 26.9822 12.9937 27.2843 12.9937 27.2843L12.3541 27.3011L12.3372 16.6772Z" fill="#EAC63C"/>
<path d="M16.2374 25.2929C17.0563 25.2929 17.7202 23.8477 17.7202 22.0649C17.7202 20.2821 17.0563 18.8369 16.2374 18.8369C15.4184 18.8369 14.7546 20.2821 14.7546 22.0649C14.7546 23.8477 15.4184 25.2929 16.2374 25.2929Z" fill="#2D2D2D"/>
<path fill-rule="evenodd" clip-rule="evenodd" d="M16.1357 18.4229L16.5318 21.3376L17.1261 18.6298" fill="#EAC63C"/>
</g>
</svg>
