<svg width="20" height="21" viewBox="0 0 20 21" fill="none" xmlns="http://www.w3.org/2000/svg">
<path d="M12.5316 15H10.9636C10.8703 14.72 10.8236 14.3187 10.8236 13.796V12.256C10.8236 11.808 10.7443 11.4907 10.5856 11.304C10.4269 11.108 10.1703 11.01 9.81559 11.01H9.28359V15H7.74359V5.2H10.0676C10.8609 5.2 11.4396 5.38667 11.8036 5.76C12.1676 6.124 12.3496 6.68867 12.3496 7.454V8.224C12.3496 9.232 12.0136 9.89467 11.3416 10.212C12.0229 10.5013 12.3636 11.1967 12.3636 12.298V13.81C12.3636 14.342 12.4196 14.7387 12.5316 15ZM10.0256 6.6H9.28359V9.61H9.88559C10.1936 9.61 10.4223 9.53067 10.5716 9.372C10.7303 9.21333 10.8096 8.94733 10.8096 8.574V7.608C10.8096 6.936 10.5483 6.6 10.0256 6.6Z" fill="#0697BE"/>
<circle cx="10" cy="10" r="9.25" stroke="#0697BE" stroke-width="1.5"/>
</svg>
