<svg width="1920" height="376" viewBox="0 0 1920 376" fill="none" xmlns="http://www.w3.org/2000/svg">
<path d="M-18 1C269 176 514 1 648 70C762.246 128.828 721 221 637 182C494.643 115.906 584.99 -27.141 757 53C933 135 807 255 946 345C1087.56 436.66 1185 294 1318 244C1451 194 1605 382 1984 197" stroke="#E4E4ED" stroke-linecap="round" stroke-linejoin="round" stroke-dasharray="10 10"/>
<path d="M756.424 101.423C759.217 99.9195 765.859 99.7014 766.546 105.786C761.732 109.471 757.322 104.877 756.424 101.423Z" fill="#EFDEC5"/>
<path d="M756.424 101.423C754.92 98.6295 754.702 91.9874 760.786 91.301C764.471 96.115 759.878 100.525 756.424 101.423Z" fill="#EFDEC5"/>
<path d="M756.424 101.423C753.63 102.927 746.988 103.145 746.302 97.0606C751.116 93.3757 755.526 97.9688 756.424 101.423Z" fill="#EFDEC5"/>
<path d="M756.424 101.423C757.927 104.217 758.146 110.859 752.061 111.545C748.377 106.731 752.969 102.321 756.424 101.423Z" fill="#EFDEC5"/>
</svg>
