<svg width="140" height="105" viewBox="0 0 140 105" fill="none" xmlns="http://www.w3.org/2000/svg">
<path d="M0 0H140V105H0V0Z" fill="#01B7E4"/>
<path opacity="0.5" d="M5.5 5.5H134.5V99.5H5.5V5.5Z" stroke="white"/>
<path d="M39.1068 73.2295H37.7375V71.8602H39.1068V73.2295ZM36.9893 73.2295H35.6482V71.8602H36.9893V73.2295ZM34.9001 73.2295H33.6013V71.8602H34.9001V73.2295ZM40.0103 71.0838H32.7261V73.9918H40.0103V71.0838ZM32.3591 79.1021L30.5239 79.6244V76.5893H31.992V75.6717H30.5239V72.5519H32.2038V71.6061H27.8276V72.5519H29.5781V75.6717H27.9829V76.5893H29.5781V79.8926C28.8722 80.0902 28.2088 80.2737 27.6723 80.4008L27.9264 81.389C29.211 81.0219 30.8909 80.5278 32.472 80.0338L32.3591 79.1021ZM33.8837 77.2104H38.7116V78.6362H33.8837V77.2104ZM39.5727 79.5679C39.1209 79.9208 38.3304 80.4714 37.7234 80.8102C37.3564 80.3867 37.0458 79.9349 36.8199 79.4409H39.6997V76.4199H32.952V79.4409H35.493C34.3213 80.4714 32.5849 81.4313 31.0744 81.9254C31.2721 82.1089 31.5544 82.4477 31.6956 82.6736C32.7261 82.2783 33.8837 81.6572 34.9142 80.9372V83.5065H35.9165V80.1467C36.0012 80.0761 36.0859 79.9914 36.1706 79.9208C36.947 81.5725 38.2739 82.8853 39.9821 83.5065C40.1232 83.2665 40.4197 82.8853 40.6597 82.6736C39.7421 82.4195 38.9233 81.9395 38.2457 81.3466C38.881 81.036 39.6997 80.5702 40.3209 80.1185L39.5727 79.5679ZM32.0767 74.7682V75.6435H40.6879V74.7682H32.0767ZM54.2117 73.526C53.8729 72.8766 53.1247 71.8461 52.4894 71.0979L51.6989 71.5496C52.3341 72.3402 53.04 73.3989 53.3788 74.0483L54.2117 73.526ZM44.6406 75.0082C44.2876 74.3165 43.4971 73.2436 42.8195 72.4531L42.0007 72.9613C42.6642 73.766 43.4406 74.8671 43.7794 75.5729L44.6406 75.0082ZM44.7817 77.041C43.6947 78.0715 42.5231 79.0738 41.7749 79.6808L42.3678 80.5702C43.0877 79.9208 43.9488 79.1162 44.7817 78.3115V83.4923H45.8122V70.6038H44.7817V77.041ZM54.6493 75.7988V74.7682H50.5978C50.6119 74.4718 50.6119 74.1895 50.6119 73.9071V70.6462H49.5814V73.9071C49.5814 74.1895 49.5814 74.4718 49.5673 74.7682H46.2922V75.7988H49.4967C49.2708 78.1139 48.4803 80.7114 45.8969 82.8289C46.1793 83.0124 46.5322 83.2665 46.7439 83.4923C48.8614 81.7419 49.8496 79.6526 50.2731 77.5633C51.0495 80.2173 52.2918 82.3207 54.1834 83.4923C54.3528 83.21 54.6916 82.8289 54.9457 82.6171C52.7576 81.4172 51.4448 78.8762 50.7672 75.7988H54.6493ZM65.8297 76.7869L64.8697 77.2951C65.6179 78.1845 66.6767 79.9491 67.2272 81.0502L68.2719 80.4714C67.7072 79.455 66.5779 77.6904 65.8297 76.7869ZM59.9289 77.2528L58.9407 76.7728C58.3902 77.9163 57.1762 79.5961 56.2445 80.4714L57.2185 81.1207C58.009 80.2596 59.336 78.4668 59.9289 77.2528ZM65.9991 71.2814L65.2509 71.592C65.632 72.1284 66.0838 72.9331 66.3661 73.5119L67.1284 73.1731C66.832 72.5943 66.352 71.7755 65.9991 71.2814ZM67.6648 70.872L66.9167 71.1967C67.3119 71.719 67.7495 72.4813 68.0601 73.0884L68.8224 72.7496C68.5542 72.2272 68.0319 71.3944 67.6648 70.872ZM63.0346 71.5496H61.7076C61.7641 71.7614 61.8064 72.2414 61.8064 72.5519V74.0059H57.882C57.4303 74.0059 57.0773 73.9777 56.6821 73.9354V75.1212C57.0632 75.0929 57.4585 75.0788 57.882 75.0788H61.8064V81.4454C61.8064 81.8125 61.637 81.9819 61.2559 81.9819C60.8888 81.9819 60.2395 81.9254 59.6325 81.8125L59.7313 82.9418C60.2959 82.9983 61.1429 83.0406 61.7358 83.0406C62.5828 83.0406 62.9499 82.6595 62.9499 81.9113V75.0788H66.6908C67.0296 75.0788 67.4531 75.0788 67.8342 75.107V73.9354C67.4813 73.9777 67.0155 74.0059 66.6767 74.0059H62.9499V72.566C62.9499 72.2555 62.9922 71.7473 63.0346 71.5496ZM80.4545 71.719H79.1276C79.1699 72.072 79.1982 72.4672 79.1982 72.9472V75.1776C79.1982 77.8457 79.0288 78.9891 78.0265 80.1608C77.1512 81.149 75.9513 81.7136 74.6526 82.0383L75.5702 83.0124C76.6007 82.6595 78.0124 82.0524 78.9299 80.9513C79.9463 79.7373 80.4122 78.6221 80.4122 75.2341V72.9472C80.4122 72.4672 80.4263 72.072 80.4545 71.719ZM73.9044 71.832H72.6198C72.648 72.1002 72.6763 72.5943 72.6763 72.8484V77.5492C72.6763 77.9727 72.6339 78.4245 72.6057 78.6362H73.9044C73.8762 78.3821 73.8479 77.9163 73.8479 77.5633V72.8484C73.8479 72.5096 73.8762 72.1002 73.9044 71.832ZM90.3786 70.6744C88.9387 71.1261 86.3412 71.4649 84.1955 71.6202C84.3225 71.8743 84.4496 72.2555 84.4919 72.4955C86.6518 72.3543 89.3339 72.0578 91.0138 71.5496L90.3786 70.6744ZM88.1622 74.5706C88.134 74.0201 87.9646 73.1731 87.767 72.5237L86.9059 72.6507C87.0894 73.3142 87.2305 74.1753 87.2447 74.7118L88.1622 74.5706ZM86.0024 74.8247C85.9036 74.2883 85.6354 73.4554 85.3248 72.8343L84.506 73.046C84.7884 73.6813 85.0566 74.5141 85.1272 75.0647L86.0024 74.8247ZM90.2656 72.3966C89.9268 73.1872 89.3198 74.3306 88.8398 75.0223L89.6304 75.347C90.1245 74.6977 90.7456 73.6671 91.2256 72.7778L90.2656 72.3966ZM88.2752 78.0292C89.1786 77.4363 90.1809 76.6034 90.9009 75.827L90.2374 75.2906L89.9974 75.347H84.7884V76.2928H89.0657C88.6281 76.7305 88.1199 77.1681 87.6399 77.5069H87.2588V78.7491C86.0871 78.848 85.0283 78.9185 84.1813 78.975L84.2943 80.0196C85.1413 79.9491 86.1577 79.8644 87.2588 79.7655V82.3207C87.2588 82.4901 87.2164 82.5465 87.0188 82.5606C86.807 82.5606 86.1718 82.5606 85.4518 82.5465C85.5789 82.8147 85.7342 83.21 85.7906 83.5065C86.7223 83.5065 87.3717 83.4923 87.767 83.3512C88.1905 83.1818 88.2752 82.8994 88.2752 82.3348V79.6667C89.2633 79.582 90.308 79.4832 91.3103 79.3844V78.4103C90.2939 78.495 89.2633 78.5797 88.2752 78.6644V78.0292ZM93.5972 82.3489C93.0184 82.3489 92.9054 82.2077 92.9054 81.4595V70.8862H91.8326V81.4454C91.8326 82.9136 92.1996 83.3229 93.456 83.3229H95.5453C96.8016 83.3229 97.0699 82.5042 97.1828 80.1043C96.9005 80.0338 96.477 79.8361 96.2087 79.6244C96.1382 81.7983 96.0535 82.3489 95.4747 82.3489H93.5972ZM108.067 73.9212V75.6435C108.067 76.5046 108.278 76.7446 109.196 76.7446H110.311C110.989 76.7446 111.243 76.4481 111.328 75.2059C111.074 75.1353 110.692 75.0223 110.537 74.8671C110.509 75.8129 110.438 75.9258 110.184 75.9258H109.295C109.041 75.9258 108.984 75.8976 108.984 75.6435V73.8648L110.156 73.7801C110.34 74.0342 110.495 74.26 110.608 74.4718L111.384 74.0059C111.003 73.3142 110.114 72.2978 109.337 71.6061L108.589 72.0014C108.9 72.2837 109.21 72.6225 109.507 72.9754L106.401 73.1166C106.796 72.439 107.22 71.6343 107.587 70.9144L106.556 70.5897C106.288 71.352 105.822 72.3825 105.385 73.1589L104.213 73.2013L104.283 74.133L105.977 74.0483C105.836 75.2482 105.427 76.0529 104.072 76.4905C104.269 76.6599 104.523 77.0128 104.622 77.2245C106.246 76.6034 106.74 75.5729 106.909 73.9918L108.067 73.9212ZM106.697 78.6503H109.295C108.942 79.4126 108.448 80.0761 107.855 80.6267C107.333 80.0902 106.895 79.4691 106.584 78.7915L106.697 78.6503ZM99.4979 81.6148V80.2032H103.225V81.6148H99.4979ZM100.359 74.7824V75.827C100.359 76.5187 100.246 77.3798 99.4979 78.0574V74.7824H100.359ZM100.938 72.1567H101.757V73.893H100.938V72.1567ZM103.225 77.154C103.196 77.1681 103.154 77.1681 103.027 77.1681H102.505C102.349 77.1681 102.335 77.154 102.335 76.9846V74.7824H103.225V77.154ZM100.952 74.7824H101.728V76.9987C101.728 77.6622 101.898 77.8033 102.448 77.8033H103.14H103.225V79.3703H99.4979V78.1845C99.625 78.2692 99.7803 78.4245 99.865 78.5233C100.754 77.761 100.952 76.674 100.952 75.827V74.7824ZM109.93 77.8174L109.747 77.8316H107.262C107.474 77.4786 107.671 77.1116 107.827 76.7305L106.867 76.4905C106.33 77.8457 105.272 79.0456 104.072 79.8079V73.893H102.519V72.1567H104.142V71.2532H98.538V72.1567H100.19V73.893H98.6792V83.45H99.4979V82.4759H103.225V83.2665H104.072V80.0338C104.283 80.2032 104.523 80.4573 104.651 80.5984C105.102 80.2879 105.54 79.9067 105.963 79.4973C106.288 80.1326 106.683 80.7114 107.149 81.2196C106.246 81.8972 105.173 82.3771 104.072 82.6736C104.255 82.8712 104.481 83.2524 104.594 83.4782C105.752 83.1253 106.853 82.603 107.813 81.8689C108.66 82.603 109.676 83.1677 110.834 83.5065C110.975 83.2524 111.257 82.8571 111.469 82.6595C110.354 82.3771 109.365 81.8972 108.547 81.2478C109.422 80.4149 110.128 79.3562 110.551 78.0574L109.93 77.8174Z" fill="white"/>
<path d="M42.2846 57.4991C38.9571 57.4991 36.1136 56.7882 33.7541 55.3665C31.4248 53.9145 29.6552 51.8877 28.4452 49.2862C27.2352 46.6847 26.6302 43.6295 26.6302 40.1205C26.6302 36.7325 27.3411 33.7377 28.7628 31.1362C30.1846 28.5347 32.1357 26.5231 34.6162 25.1014C37.0967 23.6494 39.8797 22.9234 42.9652 22.9234C45.2944 22.9234 48.0926 23.2864 51.3596 24.0124L52.8569 24.2846L52.4032 32.4521H49.3631L48.2287 26.6895C47.8052 26.3265 47.0641 26.024 46.0053 25.782C44.9768 25.5097 43.7063 25.3736 42.1938 25.3736C40.2578 25.3736 38.5336 25.9332 37.0211 27.0525C35.5086 28.1415 34.3137 29.7599 33.4364 31.9076C32.5894 34.0554 32.1659 36.6266 32.1659 39.6214C32.1659 42.4649 32.5441 45.0512 33.3003 47.3805C34.0566 49.7097 35.2061 51.5701 36.7488 52.9616C38.2916 54.3229 40.1973 55.0035 42.4661 55.0035C44.0693 55.0035 45.2944 54.8674 46.1414 54.5951C47.0187 54.3229 47.7598 53.9296 48.3648 53.4154L50.2706 48.9686L53.1292 49.3316L52.0402 55.7749C51.4049 55.8051 50.4672 56.0169 49.2269 56.4101C48.1379 56.7429 47.0792 57 46.0507 57.1815C45.0524 57.3933 43.7971 57.4991 42.2846 57.4991ZM60.7213 26.0996L57.1821 25.5551V23.2864H63.217C64.306 23.2864 65.3799 23.241 66.4386 23.1502C68.0721 23.0292 69.6149 22.9687 71.0669 22.9687C75.4531 22.999 78.5537 23.8157 80.3687 25.419C82.1837 27.0222 83.0912 29.4422 83.0912 32.679C83.0912 35.099 82.5316 37.2014 81.4124 38.9861C80.2931 40.7709 78.7352 42.1321 76.7387 43.0699C74.7725 44.0076 72.5037 44.4765 69.9325 44.4765C69.0552 44.4765 68.1629 44.4614 67.2553 44.4311C66.3478 44.3706 65.7882 44.3252 65.5765 44.295V54.2775L71.7929 54.7766V57H56.9552V54.7766L60.7213 54.3229V26.0996ZM65.5765 41.7994C66.4235 41.9506 67.8755 42.0262 69.9325 42.0262C72.3222 42.0262 74.2582 41.3002 75.7405 39.8482C77.253 38.3962 78.0092 36.0216 78.0092 32.7244C78.0092 30.1229 77.3589 28.2625 76.0581 27.1432C74.7574 25.9937 72.7306 25.419 69.9779 25.419C69.0099 25.419 67.9814 25.4795 66.8924 25.6005C66.2268 25.661 65.7882 25.6912 65.5765 25.6912V41.7994ZM90.1885 26.0996L86.5131 25.5551V23.2864H99.5358V25.5551L95.0436 26.0996V54.3229L106.75 53.9145L109.428 46.2915L112.195 46.6999L110.607 57H86.4224V54.7766L90.1885 54.3229V26.0996Z" fill="white"/>
<line opacity="0.5" x1="27.1504" y1="64.904" x2="113.867" y2="64.904" stroke="white" stroke-width="1.00833"/>
<line opacity="0.5" x1="27.1504" y1="88.0954" x2="113.867" y2="88.0954" stroke="white" stroke-width="1.00833"/>
</svg>
